<?xml version="1.0" encoding="UTF-8" standalone="no"?>
<!-- Created with Inkscape (http://www.inkscape.org/) -->

<svg
   xmlns:dc="http://purl.org/dc/elements/1.1/"
   xmlns:cc="http://creativecommons.org/ns#"
   xmlns:rdf="http://www.w3.org/1999/02/22-rdf-syntax-ns#"
   xmlns:svg="http://www.w3.org/2000/svg"
   xmlns="http://www.w3.org/2000/svg"
   xmlns:sodipodi="http://sodipodi.sourceforge.net/DTD/sodipodi-0.dtd"
   xmlns:inkscape="http://www.inkscape.org/namespaces/inkscape"
   width="210mm"
   height="297mm"
   viewBox="0 0 210 297"
   version="1.1"
   id="svg100"
   inkscape:version="0.92.4 (5da689c313, 2019-01-14)"
   sodipodi:docname="mitochondrial_logo_official.svg">
  <defs
     id="defs94" />
  <sodipodi:namedview
     id="base"
     pagecolor="#ffffff"
     bordercolor="#666666"
     borderopacity="1.0"
     inkscape:pageopacity="0"
     inkscape:pageshadow="2"
     inkscape:zoom="0.49497475"
     inkscape:cx="109.3848"
     inkscape:cy="574.75352"
     inkscape:document-units="mm"
     inkscape:current-layer="layer1"
     showgrid="false"
     inkscape:window-width="1366"
     inkscape:window-height="745"
     inkscape:window-x="-8"
     inkscape:window-y="-8"
     inkscape:window-maximized="1"
     inkscape:pagecheckerboard="false" />
  <metadata
     id="metadata97">
    <rdf:RDF>
      <cc:Work
         rdf:about="">
        <dc:format>image/svg+xml</dc:format>
        <dc:type
           rdf:resource="http://purl.org/dc/dcmitype/StillImage" />
        <dc:title></dc:title>
      </cc:Work>
    </rdf:RDF>
  </metadata>
  <g
     inkscape:label="Layer 1"
     inkscape:groupmode="layer"
     id="layer1">
    <rect
       style="opacity:1;vector-effect:none;fill:#000000;fill-opacity:1;fill-rule:evenodd;stroke-width:0.28036961;stroke-linecap:butt;stroke-linejoin:miter;stroke-miterlimit:4;stroke-dasharray:none;stroke-dashoffset:0;stroke-opacity:1"
       id="rect1094"
       width="346.98215"
       height="100.54166"
       x="-61.988113"
       y="128.42264" />
    <path
       style="fill:#464646;fill-opacity:1;stroke-width:0.22042511"
       d="M 98.540459,97.611382 C 91.871488,96.560519 85.355074,93.821469 79.869448,89.763358 77.373438,87.916892 72.635139,83.051102 70.877757,80.529772 65.942553,73.449108 63.413192,65.406624 63.413192,56.794784 c 0,-9.34507 2.928988,-17.930716 8.644559,-25.339802 1.619971,-2.099996 5.33545,-5.770693 7.492048,-7.40179 5.534156,-4.185613 11.589142,-6.807197 18.441833,-7.98461 3.581568,-0.615366 9.333928,-0.67302 12.843458,-0.128769 6.16444,0.956057 11.99352,3.248698 17.14349,6.742794 13.92638,9.448565 20.7148,26.303633 17.20214,42.711295 -3.04082,14.203601 -13.42285,25.826368 -27.22919,30.483368 -4.50683,1.520165 -6.86303,1.897759 -12.38558,1.984842 -3.61787,0.05701 -5.49796,-0.0097 -7.025491,-0.250769 z"
       id="path3877"
       inkscape:connector-curvature="0" />
    <path
       style="fill:#929292;fill-opacity:1;stroke-width:0.2591536"
       d="m 124.28204,84.476836 c -1.22889,-0.239879 -3.43758,-1.288505 -4.78834,-2.273079 -1.74952,-1.275194 -4.83606,-3.750733 -6.26093,-5.021494 -1.92502,-1.716802 -4.85634,-3.571827 -9.26091,-5.860614 -5.177011,-2.690112 -7.590159,-3.736382 -11.608825,-5.033318 -4.162146,-1.343193 -7.763419,-1.974311 -14.393065,-2.522355 -5.485674,-0.453435 -6.40752,-0.672263 -6.63726,-1.575544 -0.242659,-0.954286 0.105602,-2.27757 0.75906,-2.883383 1.186169,-1.099702 2.667647,-1.425145 6.445194,-1.415728 4.442733,0.0097 6.101045,0.422615 15.147292,3.759778 8.633964,3.185054 9.877004,3.417405 20.072164,3.751695 l 5.8715,0.192568 2.47338,1.24212 c 3.13377,1.573786 4.15705,1.657 5.26927,0.428494 0.63945,-0.706255 0.75448,-1.013805 0.62442,-1.669679 -0.24518,-1.236237 -0.95616,-2.025614 -2.51284,-2.789802 -2.29735,-1.127715 -10.20281,-2.50258 -14.46678,-2.515962 -2.27014,-0.0078 -6.40246,-0.553335 -8.84269,-1.168892 -0.84605,-0.213288 -3.311281,-1.133206 -5.478279,-2.044014 -8.381112,-3.522661 -11.203511,-4.1567 -20.023824,-4.498209 -3.358361,-0.130124 -6.14335,-0.352104 -6.450597,-0.514406 -1.159048,-0.612156 -1.407728,-2.176887 -0.563236,-3.543737 0.934248,-1.512061 3.505914,-2.282919 6.915844,-2.072982 1.696808,0.104456 2.691836,0.350773 4.81807,1.192608 3.239375,1.282624 4.556367,1.373211 5.734973,0.394455 2.763009,-2.29443 -1.630983,-5.42691 -9.194258,-6.554529 -4.652816,-0.693716 -4.90093,-1.077063 -2.890698,-4.466127 1.327647,-2.23823 4.565786,-5.725908 7.0057,-7.545514 0.867601,-0.647068 3.103609,-1.910071 4.968864,-2.806742 3.672045,-1.765174 5.701673,-2.302347 9.778852,-2.587932 3.899319,-0.273158 5.078689,0.445766 6.753119,4.116482 1.13318,2.484124 2.43942,4.126598 4.67827,5.882362 2.23103,1.749614 3.66203,2.513963 6.65686,3.555639 4.19217,1.45818 6.70348,2.062181 8.57368,2.062181 1.6649,0 1.88152,-0.0638 2.58798,-0.760819 0.76539,-0.755355 0.76796,-0.767789 0.35732,-1.737769 -0.5199,-1.228225 -1.53767,-2.296474 -2.79734,-2.935861 -1.2189,-0.61869 -4.70039,-1.42077 -7.11026,-1.638142 -3.02159,-0.272531 -4.4636,-0.793792 -5.92321,-2.141136 -2.2069,-2.037224 -3.11964,-4.550873 -2.14905,-5.918402 0.53648,-0.755861 1.48998,-0.740243 4.67569,0.07664 6.74708,1.730006 13.69078,5.32 17.58556,9.091879 4.28757,4.152337 7.84155,10.765122 6.49805,12.09091 -0.35845,0.353744 -3.79169,0.395101 -5.79971,0.06983 -2.30379,-0.373155 -3.8003,0.45781 -3.8003,2.110226 0,0.414377 0.25702,0.980429 0.59797,1.316922 0.51178,0.505131 0.97239,0.615499 3.19563,0.766072 3.11458,0.210911 4.71772,0.687278 5.78804,1.719993 1.51123,1.458193 2.1954,3.776844 1.39517,4.728471 -0.87903,1.0452 -4.98024,0.244369 -11.18488,-2.183548 -2.97371,-1.163679 -5.93214,-2.040158 -11.60879,-3.439185 -8.41405,-2.073673 -10.74183,-2.868226 -13.97031,-4.768535 -3.256771,-1.916912 -5.496289,-3.827323 -7.979224,-6.806539 -2.314135,-2.77673 -3.001762,-3.245238 -4.762953,-3.245238 -1.194764,0 -2.166629,0.959033 -2.166629,2.137983 0,1.792003 1.963192,3.644984 10.812171,10.205233 6.917205,5.128076 10.475785,6.772901 18.440685,8.52338 4.83837,1.063354 7.92398,2.063328 10.42509,3.378482 4.2046,2.210921 6.26851,4.25136 7.99239,7.901652 1.62579,3.442336 1.42435,6.272206 -0.60487,8.499565 -1.54231,1.692896 -2.65875,2.190134 -4.53949,2.021805 -2.59709,-0.232506 -6.33938,-2.562457 -11.09098,-6.90551 -3.51746,-3.215046 -4.09135,-3.581607 -5.60763,-3.581607 -1.366,0 -2.34894,0.879317 -2.34894,2.101147 0,0.688563 0.2897,1.115398 1.63043,2.402361 2.17416,2.086883 4.29449,3.535916 8.64785,5.909767 5.12095,2.792565 6.67834,3.875131 6.67834,4.642375 0,0.654499 -0.87954,1.440801 -1.558,1.392756 -0.2193,-0.01557 -0.88505,-0.123321 -1.47978,-0.239346 z m -1.76639,-37.475924 c 1.07439,-0.503133 1.51694,-1.201711 1.30053,-2.05281 -0.23757,-0.933915 -1.0817,-1.300772 -3.80073,-1.651538 -3.08957,-0.39858 -8.04843,-1.728692 -10.92628,-2.930691 -3.72563,-1.556153 -7.09297,-4.486684 -9.633864,-8.3843 -2.171628,-3.331212 -3.780639,-4.311833 -5.038343,-3.070585 -0.884324,0.872667 -0.551547,2.775564 0.993384,5.681214 1.092244,2.054167 1.568561,2.637534 3.596389,4.404739 4.249284,3.703124 6.568524,4.937101 13.965204,7.430462 3.72147,1.254483 3.82188,1.272862 6.20854,1.13719 1.44242,-0.08189 2.79447,-0.310485 3.33517,-0.563681 z"
       id="path56"
       inkscape:connector-curvature="0" />
    <path
       style="fill:#929292;fill-opacity:1;stroke-width:0.2744008"
       d="m 110.7545,90.819006 c -0.43041,-0.147639 -2.25002,-1.590836 -4.0435,-3.206859 -4.30497,-3.878943 -6.10797,-5.145815 -9.960249,-6.998444 -6.545694,-3.147975 -9.672211,-4.011988 -16.354967,-4.51979 -2.205901,-0.16767 -4.379484,-0.475253 -4.830164,-0.683582 -1.236966,-0.571849 -2.506973,-2.318472 -2.506973,-3.44778 0,-1.504751 0.300762,-1.635194 3.769568,-1.634937 9.125245,0 14.886823,1.595201 22.056594,6.104093 6.234061,3.920357 15.885441,11.430273 16.887461,13.140503 0.32769,0.559095 0.31503,0.659483 -0.11544,0.914351 -0.71063,0.420758 -3.99588,0.643551 -4.90234,0.332445 z"
       id="path58"
       inkscape:connector-curvature="0" />
    <path
       style="fill:#929292;fill-opacity:1;stroke-width:0.2591536"
       d="m 96.359831,90.249392 c -3.242109,-0.830906 -6.499911,-1.940166 -9.000034,-3.064454 -1.951766,-0.87767 -7.173941,-4.650658 -7.173941,-5.183085 0,-1.038896 3.455013,-0.829311 6.989182,0.423948 4.85471,1.721524 14.271772,7.049813 14.271772,8.075154 0,0.278097 -0.70955,0.509276 -1.521327,0.495605 -0.38284,-0.0058 -1.987371,-0.342656 -3.565652,-0.747168 z"
       id="path60"
       inkscape:connector-curvature="0" />
    <path
       style="fill:#ffffff;fill-opacity:1;stroke-width:0.77256978"
       d="m 120.62552,84.313419 c -1.20403,-0.720166 -4.18424,-3.078534 -6.62273,-5.240751 -5.37119,-4.762641 -13.65976,-9.839792 -19.825194,-12.143786 -2.505838,-0.936441 -8.085181,-2.168141 -12.398531,-2.737094 -6.64318,-0.876287 -7.88241,-1.266757 -8.103453,-2.553347 -0.383417,-2.231741 1.137536,-2.915246 6.518531,-2.929249 3.773429,-0.0097 6.686153,0.717738 13.499893,3.371998 7.430854,2.894722 9.902844,3.466206 17.080174,3.948752 5.26055,0.353685 9.39662,1.071048 11.08469,1.922546 2.43801,1.229813 2.80033,1.237769 3.82958,0.08403 0.85082,-0.953736 0.94948,-1.666666 0.39181,-2.834541 -1.33074,-2.787082 -2.54959,-3.137342 -19.32837,-5.554138 -2.81429,-0.405369 -8.290101,-2.069239 -12.168467,-3.697466 -5.36046,-2.250414 -8.596027,-3.073192 -13.491139,-3.430729 -8.274217,-0.604372 -9.723218,-0.959129 -9.723218,-2.380558 0,-1.703145 2.915967,-3.711484 5.388715,-3.711484 1.179839,0 3.905848,0.62211 6.057867,1.382468 3.599475,1.271792 4.006976,1.276872 5.089551,0.06342 2.411448,-2.702952 -0.916341,-5.576982 -8.231038,-7.108703 -1.795467,-0.375954 -3.43767,-0.877766 -3.649399,-1.115089 -0.211676,-0.237252 0.104843,-1.477898 0.703272,-2.756794 3.19846,-6.834373 13.141436,-13.365667 20.348924,-13.366775 4.110322,-5.06e-4 4.205182,0.05214 5.602522,3.122377 3.17393,6.973428 10.77347,11.971123 18.24097,11.99571 4.58432,0.01557 5.36407,-1.079728 2.80872,-3.943912 -1.233,-1.382026 -3.23584,-2.247378 -6.80389,-2.939711 -5.43357,-1.054347 -9.07002,-3.806081 -9.07002,-6.863457 0,-1.430705 0.35511,-1.539734 3.4662,-1.064263 4.40864,0.6738 12.91953,5.177985 16.58468,8.777084 3.22866,3.170504 6.94893,9.340026 6.94893,11.523978 0,1.255374 -0.64197,1.47572 -4.30022,1.47572 -2.9222,0 -4.42061,0.351432 -4.67572,1.096595 -0.65829,1.922691 0.64789,3.104306 3.94522,3.569137 4.59672,0.648029 8.48203,5.161977 5.53431,6.429868 -0.52567,0.226182 -4.65452,-0.888702 -9.17517,-2.477398 -4.52061,-1.588715 -10.87201,-3.647706 -14.11424,-4.575573 -7.90232,-2.261561 -11.79485,-4.61246 -16.807363,-10.150903 -4.293533,-4.744083 -5.932704,-5.325644 -7.395808,-2.624037 -0.686439,1.267436 -0.252794,2.067024 2.883805,5.31654 2.030458,2.103615 6.102904,5.633893 9.049849,7.845071 5.070317,3.804409 7.130017,4.702072 20.905537,9.111187 5.25815,1.68296 9.60455,5.459003 11.33723,9.849301 1.51004,3.82637 1.33048,6.159781 -0.67059,8.714024 -2.49478,3.184451 -7.19211,1.241409 -14.68023,-6.072282 -3.44762,-3.36729 -5.19853,-3.859063 -6.6691,-1.872984 -0.77878,1.051709 -0.58522,1.663412 1.18767,3.753661 1.16487,1.373442 3.59563,3.43627 5.40176,4.584055 6.39762,4.065696 8.80346,6.017861 8.37482,6.795354 -0.60575,1.098517 -1.81431,0.935575 -4.36134,-0.587921 z m 1.37398,-37.938923 c 1.52729,-1.552553 -0.45146,-3.097265 -5.61818,-4.385674 -7.97443,-1.988596 -12.45321,-4.776709 -15.90484,-9.900968 -3.262382,-4.843324 -4.523796,-5.728169 -5.768787,-4.046715 -1.394404,1.883249 0.431897,6.406441 4.128896,10.22618 6.724111,6.947291 19.801081,11.524306 23.162911,8.107177 z"
       id="path3839"
       inkscape:connector-curvature="0" />
    <path
       style="fill:#ffffff;fill-opacity:1;stroke-width:0.38628489"
       d="m 96.991768,89.949938 c -3.820729,-1.210679 -6.989901,-2.551386 -8.574262,-3.627226 -2.244702,-1.52429 -5.108021,-3.990553 -5.108021,-4.399678 0,-0.749948 3.343026,-0.393987 6.138305,0.653551 4.111559,1.540824 13.19935,7.078704 13.19935,8.043336 0,0.582335 -2.720157,0.26014 -5.655372,-0.669983 z"
       id="path3841"
       inkscape:connector-curvature="0" />
    <path
       style="fill:#ffffff;fill-opacity:1;stroke-width:0.38628489"
       d="M 105.59137,86.184843 C 101.01054,82.349295 99.353866,81.304985 94.554273,79.227302 90.317557,77.393308 87.686397,76.740558 82.397317,76.21136 79.989208,75.970418 77.57544,75.576976 77.033408,75.33704 c -1.15066,-0.509295 -2.115736,-1.994098 -2.115736,-3.255019 0,-0.880388 0.03396,-0.884199 5.928947,-0.671439 7.34784,0.265182 10.139575,1.018143 16.145149,4.354505 6.693892,3.718742 17.695822,12.042468 17.695822,13.388082 0,0.411668 -0.62973,0.549383 -2.46277,0.538436 l -2.46284,-0.01557 z"
       id="path3843"
       inkscape:connector-curvature="0" />
    <path
       style="fill:#171717;fill-opacity:1;stroke-width:0.22130835"
       d="M 102.0315,96.823542 C 89.77202,96.183373 77.984485,89.263615 71.061539,78.642865 64.578055,68.696326 62.918663,55.899836 66.62807,44.453279 c 1.002181,-3.09266 3.476114,-8.024899 5.35413,-10.674573 1.92485,-2.715744 6.862526,-7.653429 9.578292,-9.578285 4.262863,-3.021425 10.152596,-5.53317 15.528386,-6.622312 2.184548,-0.442598 3.165112,-0.508169 7.598352,-0.508169 4.43324,0 5.41381,0.06555 7.59842,0.508169 16.8898,3.421872 29.6137,16.832304 32.01816,33.745609 0.37697,2.651787 0.42675,7.898817 0.10018,10.566965 -0.88407,7.223631 -4.07405,14.635832 -8.78497,20.412649 -1.77931,2.181883 -5.42814,5.585181 -7.82266,7.296225 -1.14659,0.819312 -3.47894,2.189007 -5.18301,3.043756 -6.60076,3.310886 -12.86504,4.583184 -20.58182,4.180229 z m 0.5284,-6.042562 c 0.67024,-0.414217 -3.014687,-3.073404 -8.274177,-5.970982 -4.654253,-2.564128 -7.628322,-3.450024 -11.582241,-3.450024 -3.454653,0 -3.445079,0.382924 0.07421,2.972843 3.972187,2.923176 7.102458,4.292929 13.721089,6.004107 2.840155,0.734292 5.299889,0.914485 6.061119,0.444056 z m 12.83699,-0.150944 c 0.37827,-0.13188 0.68778,-0.381637 0.68778,-0.555027 0,-1.108382 -7.89012,-7.534233 -15.38103,-12.526497 -8.224855,-5.481488 -14.715442,-7.435524 -23.974907,-7.217888 -2.835114,0.06672 -3.205253,0.120213 -3.485635,0.504141 -0.985506,1.349783 0.875165,4.34513 3.009377,4.84454 0.306165,0.07159 2.148568,0.287122 4.094211,0.478821 6.683323,0.658484 9.506604,1.380989 14.713594,3.765365 4.835673,2.214329 6.66758,3.432785 11.45001,7.615755 3.88832,3.400922 4.33108,3.636637 6.5075,3.464412 0.93019,-0.07372 2.00078,-0.241742 2.3791,-0.373622 z m 9.51184,-5.517919 c 0.18156,-0.258686 0.55963,-0.432564 0.94052,-0.432564 0.35033,0 0.83616,-0.199181 1.07959,-0.442615 1.19492,-1.194958 0.40498,-1.89305 -6.63928,-5.867089 -4.31085,-2.432012 -6.19572,-3.729536 -8.17365,-5.62677 -1.40218,-1.344925 -1.56398,-1.587466 -1.56398,-2.34422 0,-1.031966 0.51532,-1.653496 1.37098,-1.653496 1.27002,0 2.45635,0.845919 6.42367,4.580404 2.00809,1.890283 4.91686,4.089232 6.41012,4.845925 0.58197,0.294925 1.62116,0.682865 2.30929,0.862111 1.11495,0.290389 1.4226,0.287801 2.82544,-0.02396 2.60111,-0.577883 4.34547,-1.892544 5.23571,-3.94607 0.95839,-2.210499 0.74146,-4.177089 -0.81062,-7.349672 -2.56266,-5.238309 -7.39972,-8.275512 -16.68602,-10.477221 -8.7826,-2.082296 -11.50373,-3.151698 -16.42702,-6.455928 -4.210732,-2.826017 -11.253433,-9.120117 -12.774644,-11.416744 -1.158897,-1.749594 -0.738117,-3.151928 0.945307,-3.150429 1.326161,0.0013 2.036788,0.52604 4.548083,3.359104 2.427465,2.738525 4.023036,4.176052 6.228164,5.611312 3.69337,2.403901 6.37369,3.448403 13.61056,5.303876 2.19095,0.561734 6.97121,2.007659 10.62283,3.213162 8.20155,2.707545 9.4889,3.061309 11.78636,3.238954 1.57612,0.121963 1.8881,0.08637 2.26838,-0.257726 1.15261,-1.043092 0.0417,-4.177397 -1.92182,-5.422675 -1.13706,-0.721102 -2.29029,-0.997353 -5.46745,-1.309645 -2.35032,-0.231006 -3.05338,-0.589497 -3.33181,-1.698789 -0.17251,-0.687336 0.38697,-1.773329 1.03476,-2.008511 0.27519,-0.09998 2.27095,-0.18168 4.43501,-0.18168 3.25024,0 3.97374,-0.05778 4.15906,-0.331958 0.41446,-0.61311 0,-2.303514 -1.10835,-4.536837 -2.69359,-5.420369 -7.19072,-9.762002 -13.29264,-12.833067 -2.99637,-1.508051 -7.83295,-3.601026 -9.45946,-4.093434 -1.8333,-0.555047 -4.42953,-0.890214 -5.06359,-0.653724 -0.63421,0.236528 -0.799,1.048293 -0.49978,2.461869 0.30592,1.44526 0.68522,2.221274 1.69481,3.467352 1.67665,2.069413 3.03651,2.668616 7.35267,3.239884 5.1762,0.685079 6.67152,1.363255 7.73196,3.506567 0.83785,1.693479 0.0211,2.164805 -3.73983,2.158598 -3.95949,-0.0058 -7.48046,-1.14022 -11.11958,-3.580283 -1.8698,-1.253721 -4.76216,-4.238639 -5.6766,-5.858205 -0.40848,-0.72344 -1.1554,-2.052982 -1.6598,-2.954534 -1.19869,-2.142339 -1.64058,-2.451793 -3.726001,-2.609527 -3.596999,-0.272043 -7.040131,0.650771 -11.908172,3.191594 -4.843647,2.528043 -6.447355,3.725724 -9.205787,6.875045 -3.591087,4.099987 -4.642882,6.596109 -3.079523,7.308422 0.308638,0.140631 1.958405,0.508827 3.666123,0.818223 4.645662,0.841663 8.196451,2.301592 9.154632,3.763949 0.761167,1.161699 0.09253,2.76222 -1.299909,3.111705 -0.256864,0.06438 -1.708696,-0.276816 -3.226251,-0.758411 -3.853354,-1.222837 -5.126191,-1.434561 -7.929809,-1.319042 -2.050736,0.08442 -2.590193,0.188682 -3.641679,0.703095 -1.443444,0.706201 -2.142495,1.664939 -2.142495,2.938487 0,0.982972 0.471986,1.786903 1.214937,2.069375 0.278531,0.105813 2.534096,0.300696 5.012455,0.432928 10.37415,0.553528 12.683498,1.036744 20.661583,4.323243 1.704061,0.70198 3.795459,1.515533 4.647456,1.807908 1.94082,0.665998 5.65601,1.344365 8.34509,1.523746 2.93512,0.195818 11.26373,1.595755 13.27907,2.232074 1.92053,0.606358 2.87057,1.293905 3.50416,2.535858 0.53735,1.053274 0.55264,1.997221 0.0422,2.627233 -0.38445,0.47479 -0.4074,0.476462 -1.49383,0.108536 -0.60683,-0.205521 -1.97277,-0.809812 -3.03537,-1.342916 -1.8635,-0.93487 -2.00482,-0.969373 -3.98357,-0.972332 -3.09091,-0.0038 -10.67163,-0.410291 -12.65366,-0.677164 -2.70936,-0.364788 -5.320964,-1.118375 -11.083521,-3.198217 -9.377836,-3.384702 -10.456907,-3.646034 -15.055169,-3.646034 -1.751001,0 -3.689385,0.108536 -4.307534,0.241044 -1.843588,0.395364 -3.102734,1.815051 -3.102734,3.498274 0,1.346588 0.771359,1.629079 5.754014,2.107349 5.85355,0.561875 11.355693,1.52536 15.389999,2.694952 5.720717,1.658473 14.637205,6.836397 20.984645,12.186101 7.94067,6.692417 10.47982,8.108965 11.62105,6.483121 z"
       id="path3879"
       inkscape:connector-curvature="0" />
    <path
       style="fill:#171717;fill-opacity:1;stroke-width:0.15648863"
       d="m 116.03244,47.290622 c -0.62067,-0.115346 -4.59464,-1.436317 -6.65084,-2.210717 -4.83714,-1.821777 -9.915904,-5.614226 -12.633929,-9.434137 -1.583021,-2.224791 -2.859205,-5.745947 -2.367658,-6.532716 0.30406,-0.486656 0.891174,-0.711493 1.540041,-0.589767 0.813307,0.152501 2.151608,1.519313 3.682799,3.760932 2.248267,3.29145 5.327087,6.085764 8.370347,7.596787 2.5041,1.243337 6.8571,2.556678 10.85479,3.274987 1.87237,0.33641 2.54914,0.638644 3.22267,1.439052 0.5039,0.59885 0.50112,0.928009 -0.0128,1.539075 -0.79211,0.941334 -1.4746,1.165024 -3.65781,1.198886 -1.07589,0.01749 -2.13217,-0.0019 -2.34734,-0.04241 z"
       id="path3885"
       inkscape:connector-curvature="0" />
    <text
       xml:space="preserve"
       style="font-style:normal;font-variant:normal;font-weight:normal;font-stretch:normal;font-size:8.44232464px;line-height:1.25;font-family:'BankGothic Md BT';-inkscape-font-specification:'BankGothic Md BT';letter-spacing:0px;word-spacing:0px;fill:#000000;fill-opacity:1;stroke:none;stroke-width:0.21105812"
       x="60.51524"
       y="116.11583"
       id="text3883"
       transform="scale(1.0420112,0.95968258)"><tspan
         sodipodi:role="line"
         id="tspan3881"
         x="60.51524"
         y="116.11583"
         style="stroke-width:0.21105812">MITOCHONDRIAL</tspan></text>
    <path
       style="fill:#464646;fill-opacity:1;stroke-width:0.09375571"
       d="m 36.857579,281.48755 c -2.836581,-0.44698 -5.608277,-1.612 -7.941536,-3.33808 -1.061653,-0.78538 -3.077043,-2.85499 -3.824529,-3.92743 -2.099142,-3.01169 -3.174981,-6.4325 -3.174981,-10.09546 0,-3.97483 1.245817,-7.62665 3.676879,-10.77804 0.689039,-0.89321 2.269383,-2.4545 3.186672,-3.14828 2.3539,-1.78031 4.929328,-2.89537 7.844057,-3.39618 1.523383,-0.26174 3.970078,-0.28626 5.462815,-0.0547 2.621972,0.40664 5.1013,1.3818 7.291789,2.86798 5.923453,4.01886 8.810841,11.188 7.316767,18.16684 -1.293385,6.04138 -5.709279,10.98501 -11.581663,12.96583 -1.916927,0.64658 -2.919107,0.80719 -5.26806,0.84423 -1.538816,0.0242 -2.338486,-0.004 -2.98821,-0.10666 z"
       id="path3877-1"
       inkscape:connector-curvature="0" />
    <path
       style="fill:#929292;fill-opacity:1;stroke-width:0.1102285"
       d="m 47.806457,275.90089 c -0.522695,-0.10203 -1.462135,-0.54805 -2.036666,-0.96683 -0.744138,-0.54239 -2.056959,-1.59533 -2.663013,-2.13584 -0.818782,-0.73023 -2.065585,-1.51924 -3.939017,-2.49276 -2.201978,-1.14422 -3.228389,-1.58924 -4.93769,-2.14089 -1.770327,-0.57131 -3.302095,-0.83975 -6.121952,-1.07285 -2.333279,-0.19287 -2.725377,-0.28595 -2.823096,-0.67014 -0.103212,-0.4059 0.04492,-0.96875 0.322859,-1.22644 0.504527,-0.46774 1.134658,-0.60616 2.741402,-0.60216 1.889674,0.004 2.595021,0.17976 6.442756,1.59919 3.672367,1.35473 4.20108,1.45356 8.53747,1.59574 l 2.497369,0.082 1.052025,0.52833 c 1.332915,0.6694 1.76816,0.70479 2.241229,0.18226 0.271987,-0.3004 0.320912,-0.43122 0.265595,-0.71019 -0.104286,-0.52582 -0.406694,-0.86158 -1.068814,-1.18662 -0.977158,-0.47966 -4.33965,-1.06445 -6.153277,-1.07014 -0.965579,-0.004 -2.72321,-0.23535 -3.761136,-0.49717 -0.359854,-0.0907 -1.408413,-0.482 -2.330125,-0.8694 -3.564824,-1.49834 -4.765306,-1.76802 -8.516942,-1.91327 -1.428446,-0.0553 -2.613014,-0.14976 -2.743699,-0.2188 -0.49299,-0.26038 -0.598764,-0.92592 -0.239567,-1.5073 0.397372,-0.64313 1.491207,-0.97101 2.941588,-0.88172 0.721721,0.0444 1.144946,0.1492 2.049319,0.50726 1.377837,0.54556 1.938008,0.58409 2.439316,0.16778 1.175221,-0.97592 -0.693723,-2.30829 -3.91069,-2.78791 -1.97903,-0.29506 -2.084563,-0.45812 -1.229531,-1.89962 0.564703,-0.952 1.942015,-2.43546 2.979808,-3.20941 0.369026,-0.27522 1.320091,-0.81243 2.113458,-1.19381 1.561869,-0.75081 2.425155,-0.97929 4.159343,-1.10076 1.658535,-0.11619 2.16017,0.1896 2.872368,1.7509 0.481979,1.0566 1.037577,1.75522 1.989843,2.502 0.948943,0.7442 1.557599,1.0693 2.831415,1.51237 1.783091,0.62022 2.85125,0.87713 3.646713,0.87713 0.708153,0 0.800287,-0.0271 1.100774,-0.32361 0.32555,-0.32129 0.326645,-0.32658 0.151982,-0.73915 -0.22113,-0.5224 -0.654034,-0.97677 -1.189821,-1.24874 -0.518449,-0.26316 -1.999255,-0.60431 -3.024264,-0.69677 -1.285199,-0.1159 -1.898542,-0.33763 -2.51937,-0.91071 -0.938675,-0.86651 -1.326896,-1.93566 -0.914071,-2.51733 0.228187,-0.32149 0.633746,-0.31486 1.98875,0.0326 2.869787,0.73583 5.823219,2.2628 7.479825,3.86713 1.823676,1.76617 3.335327,4.57885 2.763882,5.14276 -0.152464,0.15046 -1.61276,0.16805 -2.466852,0.0297 -0.979894,-0.15871 -1.616419,0.19473 -1.616419,0.89756 0,0.17626 0.109318,0.41702 0.254342,0.56015 0.217678,0.21485 0.413594,0.2618 1.359231,0.32584 1.324754,0.0897 2.006634,0.29233 2.461883,0.73158 0.642787,0.62023 0.933796,1.60645 0.593423,2.01122 -0.373887,0.44456 -2.118297,0.10394 -4.757378,-0.92876 -1.26484,-0.49496 -2.52318,-0.86776 -4.937673,-1.46282 -3.578811,-0.88202 -4.568904,-1.21998 -5.942101,-2.02825 -1.385236,-0.81534 -2.33779,-1.62792 -3.393885,-2.8951 -0.984295,-1.18106 -1.276769,-1.38033 -2.025874,-1.38033 -0.508182,0 -0.921557,0.40792 -0.921557,0.90937 0,0.76221 0.835025,1.55036 4.598853,4.3407 2.942158,2.18117 4.455754,2.88079 7.84353,3.62533 2.057944,0.45229 3.370375,0.87762 4.434198,1.43701 1.788386,0.94039 2.66625,1.80827 3.399484,3.3609 0.691513,1.46416 0.605834,2.66783 -0.257277,3.61521 -0.656004,0.72007 -1.130871,0.93156 -1.930828,0.85996 -1.104646,-0.0989 -2.696393,-1.08991 -4.717428,-2.93718 -1.496112,-1.36751 -1.740209,-1.52342 -2.385141,-1.52342 -0.581011,0 -0.999092,0.37402 -0.999092,0.8937 0,0.29288 0.12322,0.47444 0.693483,1.02183 0.924754,0.88764 1.826612,1.50397 3.67826,2.51366 2.178145,1.1878 2.840566,1.64825 2.840566,1.9746 0,0.27838 -0.374104,0.61283 -0.662685,0.59239 -0.09328,-0.007 -0.376448,-0.0525 -0.629411,-0.1018 z M 47.05514,259.96086 c 0.456982,-0.21401 0.645217,-0.51115 0.55317,-0.87314 -0.101046,-0.39724 -0.460091,-0.55328 -1.616597,-0.70248 -1.314114,-0.16952 -3.4233,-0.73528 -4.647362,-1.24654 -1.584654,-0.6619 -3.01691,-1.90837 -4.097652,-3.56618 -0.923679,-1.4169 -1.608055,-1.834 -2.143007,-1.30604 -0.376141,0.37118 -0.234599,1.18056 0.422524,2.41645 0.464577,0.87372 0.667171,1.12184 1.52969,1.87352 1.807384,1.57508 2.793845,2.09994 5.939931,3.16047 1.582885,0.53358 1.625592,0.54139 2.640727,0.48369 0.613519,-0.0348 1.188598,-0.13206 1.418576,-0.23975 z"
       id="path56-8"
       inkscape:connector-curvature="0" />
    <path
       style="fill:#929292;fill-opacity:1;stroke-width:0.11671375"
       d="m 42.052678,278.59848 c -0.183068,-0.0628 -0.957021,-0.67665 -1.719853,-1.36402 -1.83107,-1.64987 -2.597951,-2.18872 -4.236479,-2.97671 -2.784152,-1.33896 -4.113985,-1.70646 -6.95643,-1.92245 -0.93826,-0.0714 -1.862772,-0.20214 -2.054465,-0.29076 -0.526131,-0.24322 -1.066317,-0.98614 -1.066317,-1.46647 0,-0.64004 0.127927,-0.69552 1.60335,-0.69542 3.881335,0 6.331967,0.67852 9.381562,2.59632 2.651585,1.66749 6.756684,4.86177 7.182882,5.58919 0.139378,0.23781 0.133992,0.2805 -0.0491,0.38891 -0.302261,0.17897 -1.6996,0.27373 -2.085153,0.14141 z"
       id="path58-2"
       inkscape:connector-curvature="0" />
    <path
       style="fill:#929292;fill-opacity:1;stroke-width:0.1102285"
       d="m 35.93007,278.35619 c -1.379,-0.35341 -2.764673,-0.82522 -3.828078,-1.30343 -0.830165,-0.3733 -3.051368,-1.97811 -3.051368,-2.20458 0,-0.44188 1.469558,-0.35273 2.972782,0.18033 2.064905,0.73223 6.070357,2.99856 6.070357,3.43468 0,0.11829 -0.301798,0.21662 -0.647075,0.2108 -0.16284,-0.003 -0.845313,-0.14574 -1.516618,-0.3178 z"
       id="path60-1"
       inkscape:connector-curvature="0" />
    <path
       style="fill:#ffffff;fill-opacity:1;stroke-width:0.32860515"
       d="m 46.251202,275.83139 c -0.512126,-0.30632 -1.77972,-1.30943 -2.816899,-2.22911 -2.284576,-2.02574 -5.810018,-4.18526 -8.432424,-5.16525 -1.065835,-0.39831 -3.438956,-0.92221 -5.273599,-1.16421 -2.825612,-0.37271 -3.352707,-0.5388 -3.446726,-1.08604 -0.163082,-0.94924 0.483841,-1.23996 2.772595,-1.24592 1.604992,-0.004 2.843892,0.30528 5.742049,1.43425 3.160642,1.23124 4.212072,1.47431 7.264862,1.67956 2.237514,0.15044 3.996742,0.45556 4.714739,0.81774 1.036985,0.52309 1.191093,0.52648 1.628874,0.0358 0.361892,-0.40566 0.403853,-0.70891 0.166652,-1.20565 -0.566017,-1.18546 -1.084439,-1.33444 -8.221096,-2.36241 -1.197023,-0.17241 -3.526099,-0.88013 -5.175725,-1.57267 -2.28002,-0.95719 -3.656237,-1.30716 -5.738326,-1.45923 -3.519359,-0.25706 -4.135678,-0.40797 -4.135678,-1.01255 0,-0.72442 1.240279,-1.57864 2.292039,-1.57864 0.501832,0 1.661314,0.26461 2.576655,0.58802 1.531001,0.54094 1.70433,0.54309 2.16479,0.027 1.025688,-1.14967 -0.389756,-2.37211 -3.500991,-3.02361 -0.763685,-0.15991 -1.462181,-0.37335 -1.552238,-0.47429 -0.09004,-0.10092 0.0446,-0.62862 0.29913,-1.17258 1.360435,-2.90693 5.589583,-5.68496 8.655223,-5.68543 1.748283,-2.2e-4 1.78863,0.0222 2.382971,1.32808 1.349993,2.96607 4.582367,5.09179 7.758576,5.10225 1.949895,0.007 2.28155,-0.45925 1.194659,-1.6775 -0.524444,-0.58783 -1.376328,-0.9559 -2.893954,-1.25038 -2.311108,-0.44846 -3.857826,-1.61888 -3.857826,-2.9193 0,-0.60854 0.151042,-0.65492 1.474309,-0.45269 1.875159,0.28661 5.495171,2.20242 7.054104,3.73326 1.373281,1.34854 2.955661,3.97269 2.955661,4.90161 0,0.53397 -0.273057,0.62768 -1.829059,0.62768 -1.242929,0 -1.880263,0.14948 -1.988769,0.46643 -0.279999,0.8178 0.275572,1.32039 1.678058,1.5181 1.955171,0.27563 3.607753,2.1956 2.353966,2.73488 -0.223588,0.0962 -1.979752,-0.378 -3.902568,-1.05374 -1.922795,-0.67574 -4.624289,-1.55152 -6.00333,-1.94618 -3.361158,-0.96193 -5.0168,-1.96186 -7.148821,-4.31758 -1.826216,-2.01785 -2.52342,-2.26521 -3.145738,-1.11611 -0.291972,0.5391 -0.107524,0.87918 1.226599,2.26133 0.863635,0.89476 2.59581,2.39633 3.849267,3.33684 2.156599,1.61817 3.03267,1.99997 8.891918,3.87534 2.236501,0.71585 4.085197,2.32195 4.822177,4.18933 0.642279,1.62751 0.565906,2.62001 -0.28523,3.70643 -1.061129,1.35447 -3.059091,0.52802 -6.244076,-2.58279 -1.466407,-1.43225 -2.211134,-1.64143 -2.836624,-0.79666 -0.331246,0.44734 -0.248914,0.70752 0.505159,1.59659 0.495463,0.58418 1.529359,1.46159 2.297578,1.94978 2.72115,1.7293 3.744452,2.55964 3.562133,2.89034 -0.257653,0.46725 -0.771702,0.39794 -1.855046,-0.25007 z m 0.584402,-16.13697 c 0.649614,-0.66037 -0.192022,-1.3174 -2.389626,-1.86541 -3.391823,-0.84583 -5.29682,-2.03173 -6.764931,-4.21128 -1.387623,-2.06006 -1.924153,-2.43642 -2.453699,-1.72124 -0.593094,0.80102 0.183702,2.72493 1.756189,4.34962 2.860024,2.95496 8.422154,4.90174 9.852067,3.44831 z"
       id="path3839-5"
       inkscape:connector-curvature="0" />
    <path
       style="fill:#ffffff;fill-opacity:1;stroke-width:0.16430257"
       d="m 36.198858,278.22882 c -1.625109,-0.51494 -2.973087,-1.0852 -3.646979,-1.5428 -0.954763,-0.64834 -2.172649,-1.69734 -2.172649,-1.87136 0,-0.31898 1.421924,-0.16758 2.61087,0.27798 1.748811,0.65538 5.614211,3.01086 5.614211,3.42115 0,0.2477 -1.156986,0.11066 -2.405453,-0.28497 z"
       id="path3841-7"
       inkscape:connector-curvature="0" />
    <path
       style="fill:#ffffff;fill-opacity:1;stroke-width:0.16430257"
       d="m 39.856604,276.62737 c -1.948403,-1.63141 -2.653049,-2.07558 -4.694511,-2.95932 -1.802048,-0.78007 -2.921185,-1.0577 -5.170845,-1.2828 -1.024266,-0.10248 -2.05094,-0.26982 -2.281487,-0.37188 -0.489422,-0.21662 -0.899907,-0.84817 -0.899907,-1.38449 0,-0.37447 0.01444,-0.37609 2.521821,-0.28559 3.125332,0.11279 4.31277,0.43305 6.867183,1.85214 2.847174,1.58174 7.526712,5.12215 7.526712,5.6945 0,0.17509 -0.267848,0.23367 -1.047511,0.22901 l -1.047535,-0.007 z"
       id="path3843-9"
       inkscape:connector-curvature="0" />
    <path
       style="fill:#171717;fill-opacity:1;stroke-width:0.09413138"
       d="m 38.342457,281.15245 c -5.214448,-0.27229 -10.228165,-3.21555 -13.172773,-7.73298 -2.757688,-4.23067 -3.463495,-9.67355 -1.885734,-14.54222 0.426269,-1.31544 1.478532,-3.41332 2.277328,-4.54033 0.818716,-1.15512 2.91891,-3.25531 4.074034,-4.07403 1.813168,-1.28514 4.318309,-2.35348 6.604853,-2.81674 0.929174,-0.18826 1.34625,-0.21615 3.231871,-0.21615 1.885626,0 2.302699,0.0279 3.2319,0.21615 7.183888,1.45546 12.595875,7.15945 13.618591,14.35337 0.160339,1.12791 0.181513,3.35968 0.04261,4.49456 -0.37603,3.0725 -1.732857,6.22522 -3.736602,8.68233 -0.756811,0.92805 -2.308807,2.37561 -3.327292,3.10338 -0.48769,0.34849 -1.479736,0.93107 -2.204542,1.29464 -2.807557,1.40826 -5.471989,1.94942 -8.754232,1.77802 z m 0.224749,-2.57015 c 0.285073,-0.17618 -1.282263,-1.30725 -3.519337,-2.5397 -1.979642,-1.09062 -3.244635,-1.46744 -4.926396,-1.46744 -1.469404,0 -1.465332,0.16288 0.03157,1.26448 1.689532,1.24334 3.020963,1.82596 5.836132,2.55378 1.208036,0.31233 2.254253,0.38898 2.578038,0.18888 z m 5.460059,-0.0642 c 0.16089,-0.056 0.29254,-0.16232 0.29254,-0.23608 0,-0.47143 -3.355973,-3.2046 -6.542136,-5.32802 -3.498365,-2.3315 -6.259073,-3.16263 -10.197499,-3.07006 -1.205888,0.0284 -1.363324,0.0511 -1.482582,0.21444 -0.419175,0.57411 0.372244,1.84815 1.280011,2.06058 0.130224,0.0304 0.913872,0.12213 1.741432,0.20366 2.842689,0.28007 4.043544,0.58739 6.258288,1.60156 2.056806,0.94184 2.835986,1.4601 4.870136,3.23928 1.653848,1.44655 1.84217,1.54682 2.767886,1.47356 0.395647,-0.0314 0.851007,-0.10282 1.011924,-0.15892 z m 4.045752,-2.34699 c 0.07722,-0.11003 0.238034,-0.18398 0.400044,-0.18398 0.149006,0 0.355649,-0.0847 0.459189,-0.18827 0.508247,-0.50826 0.172255,-0.8052 -2.823949,-2.4955 -1.833566,-1.03444 -2.635277,-1.58633 -3.476563,-2.3933 -0.5964,-0.57205 -0.665221,-0.67522 -0.665221,-0.99709 0,-0.43895 0.219187,-0.70331 0.583134,-0.70331 0.540184,0 1.044776,0.35981 2.732231,1.94824 0.854114,0.80402 2.091323,1.73932 2.726472,2.06117 0.247533,0.12545 0.68954,0.29045 0.982235,0.36669 0.474229,0.12351 0.605087,0.12242 1.201772,-0.0102 1.106353,-0.24579 1.848301,-0.80497 2.226958,-1.67842 0.40764,-0.94022 0.315373,-1.77669 -0.344792,-3.12612 -1.090003,-2.22807 -3.1474,-3.51991 -7.097228,-4.4564 -3.735566,-0.88567 -4.892971,-1.34054 -6.987034,-2.74596 -1.79099,-1.20201 -4.786536,-3.87916 -5.433569,-4.85601 -0.492924,-0.74417 -0.31395,-1.34063 0.402078,-1.34 0.564068,5.4e-4 0.86633,0.22374 1.934484,1.42876 1.032498,1.16481 1.711161,1.77624 2.649093,2.38673 1.57093,1.02247 2.71097,1.46673 5.789086,2.25594 0.93189,0.23894 2.965121,0.85394 4.518297,1.3667 3.488451,1.15162 4.036011,1.30209 5.013214,1.37765 0.670388,0.0519 0.803087,0.0367 0.964832,-0.10963 0.490253,-0.44366 0.01774,-1.7768 -0.817425,-2.30648 -0.483641,-0.30671 -0.974156,-0.42421 -2.325529,-0.55704 -0.999684,-0.0982 -1.298727,-0.25074 -1.417152,-0.72256 -0.07338,-0.29235 0.164592,-0.75427 0.440124,-0.85431 0.117049,-0.0426 0.965928,-0.0773 1.886391,-0.0773 1.382456,0 1.690189,-0.0246 1.769015,-0.14121 0.176284,-0.26077 0,-0.97977 -0.471427,-1.92969 -1.145691,-2.30551 -3.058502,-4.15218 -5.653893,-5.45843 -1.274476,-0.64143 -3.331654,-1.53166 -4.023471,-1.7411 -0.779775,-0.23609 -1.884046,-0.37864 -2.153738,-0.27806 -0.269753,0.10061 -0.339844,0.44589 -0.212575,1.04714 0.130116,0.61473 0.291447,0.9448 0.720866,1.4748 0.713142,0.88021 1.291546,1.13507 3.127371,1.37806 2.201632,0.29139 2.837654,0.57984 3.288701,1.49148 0.356373,0.7203 0.0089,0.92078 -1.590697,0.91814 -1.684124,-0.003 -3.181725,-0.48497 -4.729581,-1.52284 -0.795293,-0.53325 -2.025523,-1.80286 -2.414472,-2.49173 -0.173742,-0.30771 -0.491437,-0.87322 -0.705978,-1.25668 -0.509844,-0.91123 -0.697796,-1.04284 -1.584811,-1.10993 -1.52995,-0.11572 -2.994451,0.27679 -5.065027,1.3575 -2.0602,1.07528 -2.74232,1.58471 -3.915593,2.92424 -1.527435,1.74389 -1.974806,2.80559 -1.309845,3.10856 0.131276,0.0598 0.832988,0.21643 1.55935,0.34803 1.975987,0.358 3.486281,0.97896 3.893834,1.60096 0.323756,0.49412 0.03936,1.17488 -0.552903,1.32353 -0.109254,0.0274 -0.726777,-0.11774 -1.372254,-0.32259 -1.638988,-0.52011 -2.180377,-0.61017 -3.372869,-0.56104 -0.872261,0.036 -1.101714,0.0803 -1.548954,0.29906 -0.613955,0.30038 -0.911289,0.70817 -0.911289,1.24986 0,0.4181 0.200754,0.76004 0.516762,0.88019 0.11847,0.045 1.077852,0.12789 2.131999,0.18414 4.412546,0.23544 5.394803,0.44097 8.788205,1.83885 0.724808,0.29858 1.614362,0.64462 1.976754,0.76898 0.825503,0.28327 2.405714,0.57181 3.549479,0.64811 1.248421,0.0832 4.790895,0.67874 5.648095,0.94939 0.816877,0.2579 1.22097,0.55035 1.490463,1.0786 0.228553,0.448 0.235053,0.84951 0.01796,1.11748 -0.163524,0.20195 -0.173287,0.20265 -0.635386,0.0462 -0.25811,-0.0874 -0.839097,-0.34445 -1.291063,-0.57119 -0.792627,-0.39765 -0.852736,-0.41232 -1.694372,-0.41358 -1.314681,-0.002 -4.539052,-0.17452 -5.382083,-0.28803 -1.152393,-0.15515 -2.263212,-0.47568 -4.71426,-1.36032 -3.988772,-1.43965 -4.447744,-1.55081 -6.403571,-1.55081 -0.744772,0 -1.569244,0.0462 -1.832169,0.10253 -0.784152,0.16816 -1.319718,0.77201 -1.319718,1.48796 0,0.57276 0.328091,0.69291 2.447415,0.89633 2.489751,0.239 4.830036,0.6488 6.54599,1.14628 2.433253,0.70542 6.225775,2.90782 8.925587,5.18326 3.377468,2.84655 4.457464,3.44907 4.942881,2.75753 z"
       id="path3879-3"
       inkscape:connector-curvature="0" />
    <path
       style="fill:#171717;fill-opacity:1;stroke-width:0.06656094"
       d="m 44.297585,260.08408 c -0.263995,-0.0491 -1.954272,-0.61092 -2.82885,-0.94031 -2.057422,-0.77487 -4.217614,-2.38796 -5.373703,-4.01272 -0.673319,-0.94629 -1.216134,-2.44398 -1.00706,-2.77863 0.12933,-0.20699 0.379053,-0.30263 0.655045,-0.25085 0.345931,0.0649 0.915164,0.64623 1.566443,1.59968 0.956271,1.39998 2.265811,2.58852 3.560223,3.23122 1.065094,0.52884 2.916591,1.08746 4.616957,1.39298 0.79639,0.14309 1.084246,0.27164 1.370726,0.61209 0.214324,0.25472 0.213142,0.39473 -0.0055,0.65463 -0.336918,0.40038 -0.627205,0.49553 -1.555809,0.50994 -0.457611,0.007 -0.906891,-7.2e-4 -0.998415,-0.0181 z"
       id="path3885-2"
       inkscape:connector-curvature="0" />
    <text
       xml:space="preserve"
       style="font-style:normal;font-variant:normal;font-weight:normal;font-stretch:normal;font-size:12.73576069px;line-height:1.25;font-family:'BankGothic Md BT';-inkscape-font-specification:'BankGothic Md BT';letter-spacing:0px;word-spacing:0px;fill:#000000;fill-opacity:1;stroke:none;stroke-width:0.31839406"
       x="60.604572"
       y="278.23889"
       id="text3883-2"
       transform="scale(1.0420112,0.95968258)"><tspan
         sodipodi:role="line"
         id="tspan3881-6"
         x="60.604572"
         y="278.23889"
         style="stroke-width:0.31839406">MITOCHONDRIAL</tspan></text>
    <path
       style="fill:#cccccc;fill-opacity:1;stroke-width:0.11332086"
       d="m 30.510612,200.68291 c -3.42854,-0.54025 -6.77863,-1.9484 -9.59881,-4.03468 -1.2832,-0.94927 -3.71916,-3.45077 -4.62263,-4.747 -2.5372,-3.64018 -3.83754,-7.77484 -3.83754,-12.2022 0,-4.80431 1.50578,-9.21821 4.44417,-13.02723 0.83284,-1.07961 2.74297,-2.96672 3.85168,-3.80526 2.8451,-2.15184 5.95798,-3.49959 9.48096,-4.1049 1.84129,-0.31637 4.79858,-0.34601 6.60281,-0.0662 3.16914,0.49151 6.16586,1.67017 8.81347,3.46648 7.15957,4.85752 10.64951,13.52273 8.84364,21.95793 -1.5633,7.30211 -6.90069,13.27739 -13.99856,15.67156 -2.31693,0.78152 -3.52827,0.97564 -6.36739,1.02041 -1.85994,0.0293 -2.82649,-0.005 -3.6118,-0.12892 z"
       id="path3877-4"
       inkscape:connector-curvature="0" />
    <ellipse
       style="fill:#f1f1f1;fill-opacity:0.94472363;stroke-width:0.08333092"
       id="path52-3"
       ry="20.644316"
       rx="20.639105"
       cy="179.7585"
       cx="33.661865" />
    <path
       style="fill:#8a8a8a;fill-opacity:1;stroke-width:0.13323122"
       d="m 43.744312,193.93043 c -0.63175,-0.12333 -1.76724,-0.66243 -2.46169,-1.1686 -0.8994,-0.65557 -2.4862,-1.92826 -3.21872,-2.58156 -0.98964,-0.88261 -2.49664,-1.83628 -4.76102,-3.01295 -2.66149,-1.383 -3.9021,-1.92089 -5.96809,-2.58764 -2.13977,-0.69055 -3.9912,-1.015 -7.39951,-1.29675 -2.82019,-0.23311 -3.29412,-0.34562 -3.41223,-0.81 -0.12474,-0.4906 0.0543,-1.17089 0.39025,-1.48234 0.60981,-0.56537 1.37142,-0.73267 3.31346,-0.72784 2.28404,0.005 3.13658,0.21727 7.78727,1.93291 4.43873,1.63744 5.07775,1.7569 10.31907,1.92875 l 3.01853,0.099 1.27158,0.63859 c 1.61108,0.80908 2.13713,0.85186 2.70894,0.22029 0.32873,-0.36309 0.38787,-0.52121 0.321,-0.85839 -0.12605,-0.63556 -0.49157,-1.04137 -1.29185,-1.43425 -1.18107,-0.57975 -5.24527,-1.28658 -7.43736,-1.29346 -1.16708,-0.004 -3.29149,-0.28447 -4.54602,-0.60092 -0.43493,-0.10966 -1.70232,-0.58259 -2.81639,-1.05084 -4.30873,-1.811 -5.75973,-2.13696 -10.29428,-2.31253 -1.72653,-0.0669 -3.15828,-0.18102 -3.31625,-0.26445 -0.59586,-0.31472 -0.72371,-1.11915 -0.28955,-1.82185 0.4803,-0.77735 1.80239,-1.17365 3.55543,-1.06572 0.87235,0.0537 1.38387,0.18033 2.47698,0.61313 1.66538,0.65939 2.34243,0.70596 2.94836,0.20278 1.42047,-1.17957 -0.8385,-2.78998 -4.72679,-3.36969 -2.392,-0.35664 -2.51957,-0.55372 -1.4861,-2.29604 0.68254,-1.15068 2.34728,-2.9437 3.60164,-3.87916 0.44604,-0.33266 1.59557,-0.98197 2.55449,-1.44295 1.8878,-0.90748 2.93125,-1.18364 5.02734,-1.33046 2.00463,-0.14043 2.61096,0.22917 3.47177,2.11629 0.58257,1.27709 1.25411,2.12149 2.40508,3.02413 1.14697,0.89948 1.88265,1.29243 3.42229,1.82796 2.1552,0.74965 3.44626,1.06017 4.40773,1.06017 0.85593,0 0.96729,-0.0328 1.33047,-0.39114 0.39348,-0.38833 0.39482,-0.39472 0.1837,-0.89339 -0.26727,-0.63143 -0.79053,-1.18061 -1.43812,-1.50932 -0.62664,-0.31807 -2.41644,-0.73043 -3.65538,-0.84218 -1.55338,-0.14011 -2.29473,-0.40809 -3.04511,-1.10075 -1.13456,-1.04735 -1.60379,-2.33962 -1.10482,-3.04267 0.27582,-0.38858 0.76601,-0.38056 2.40377,0.0394 3.46867,0.8894 7.03841,2.73502 9.04075,4.67415 2.20423,2.13472 4.03133,5.53436 3.34065,6.21595 -0.1843,0.18186 -1.94932,0.20312 -2.98165,0.0359 -1.18439,-0.19184 -1.95373,0.23536 -1.95373,1.08487 0,0.21303 0.13211,0.50404 0.30741,0.67703 0.26311,0.25969 0.49989,0.31644 1.64289,0.39384 1.6012,0.10843 2.42537,0.35333 2.97561,0.88425 0.77695,0.74966 1.12867,1.94168 0.71726,2.43092 -0.45188,0.53733 -2.56034,0.12562 -5.75016,-1.12257 -1.52877,-0.59825 -3.04972,-1.04885 -5.96807,-1.76809 -4.32564,-1.06607 -5.52234,-1.47456 -7.18212,-2.45151 -1.67429,-0.98549 -2.82564,-1.96763 -4.10211,-3.49925 -1.18971,-1.42752 -1.54321,-1.66837 -2.44865,-1.66837 -0.61422,0 -1.11386,0.49303 -1.11386,1.09913 0,0.92127 1.00928,1.87389 5.55855,5.24652 3.55613,2.63635 5.3856,3.48196 9.48034,4.38188 2.48739,0.54667 4.0737,1.06076 5.35952,1.73688 2.1616,1.13664 3.22265,2.18563 4.10892,4.06226 0.8358,1.76972 0.73226,3.22456 -0.31099,4.36965 -0.7929,0.87032 -1.36684,1.12595 -2.33375,1.03941 -1.33515,-0.11953 -3.25907,-1.31736 -5.70187,-3.55013 -1.80833,-1.65287 -2.10336,-1.84132 -2.88288,-1.84132 -0.70224,0 -1.20757,0.45206 -1.20757,1.08021 0,0.35399 0.14892,0.57343 0.8382,1.23506 1.11772,1.07287 2.20778,1.81782 4.44583,3.03822 2.6327,1.43566 3.43336,1.99221 3.43336,2.38665 0,0.33648 -0.45218,0.74072 -0.80097,0.71603 -0.11274,-0.008 -0.45502,-0.0633 -0.76078,-0.12306 z m -0.90809,-19.26644 c 0.55235,-0.25866 0.77986,-0.61781 0.6686,-1.05535 -0.12214,-0.48014 -0.55612,-0.66874 -1.95395,-0.84907 -1.58834,-0.20491 -4.13769,-0.88871 -5.61718,-1.50667 -1.91535,-0.80002 -3.64648,-2.30661 -4.95275,-4.31037 -1.11645,-1.71259 -1.94364,-2.21672 -2.59023,-1.57859 -0.45463,0.44864 -0.28357,1.42692 0.51071,2.92071 0.56152,1.05605 0.80639,1.35597 1.8489,2.26448 2.18456,1.90378 3.37687,2.53818 7.17948,3.82001 1.91322,0.64493 1.96482,0.65438 3.19181,0.58464 0.74155,-0.0421 1.43663,-0.15963 1.71461,-0.28979 z"
       id="path56-9"
       inkscape:connector-curvature="0" />
    <path
       style="fill:#8a8a8a;fill-opacity:1;stroke-width:0.14106983"
       d="m 36.789842,197.19094 c -0.2213,-0.0759 -1.15674,-0.81784 -2.07878,-1.64865 -2.21317,-1.99417 -3.14008,-2.64546 -5.12054,-3.59791 -3.36517,-1.61838 -4.9725,-2.06257 -8.40812,-2.32363 -1.13405,-0.0862 -2.25149,-0.24433 -2.4832,-0.35143 -0.63593,-0.29399 -1.28883,-1.19193 -1.28883,-1.77251 0,-0.7736 0.15462,-0.84066 1.93794,-0.84053 4.69128,0 7.65334,0.8201 11.33934,3.13813 3.20491,2.01546 8.16666,5.87633 8.68182,6.75555 0.16844,0.28743 0.16194,0.33904 -0.0594,0.47007 -0.36532,0.21631 -2.05428,0.33085 -2.52026,0.17091 z"
       id="path58-3"
       inkscape:connector-curvature="0" />
    <path
       style="fill:#8a8a8a;fill-opacity:1;stroke-width:0.13323122"
       d="m 29.389542,196.89811 c -1.66678,-0.42718 -3.3416,-0.99745 -4.62692,-1.57544 -1.00341,-0.45122 -3.68815,-2.39092 -3.68815,-2.66464 0,-0.53409 1.77622,-0.42635 3.59315,0.21795 2.49582,0.88504 7.33714,3.62432 7.33714,4.15145 0,0.14297 -0.36479,0.26182 -0.78212,0.25479 -0.19681,-0.003 -1.0217,-0.17616 -1.8331,-0.38411 z"
       id="path60-1-5"
       inkscape:connector-curvature="0" />
    <path
       style="fill:#000000;fill-opacity:1;stroke-width:0.39717922"
       d="m 41.864502,193.84642 c -0.619,-0.37025 -2.15112,-1.58268 -3.40474,-2.69429 -2.76132,-2.44847 -7.02244,-5.05865 -10.1921,-6.24315 -1.28827,-0.48142 -4.15663,-1.11465 -6.37412,-1.40714 -3.41525,-0.45051 -4.05234,-0.65125 -4.16599,-1.31269 -0.19712,-1.14734 0.58481,-1.49872 3.35119,-1.50592 1.93991,-0.005 3.43736,0.36898 6.94031,1.73355 3.82022,1.48818 5.09105,1.78197 8.78091,2.03006 2.70444,0.18183 4.83078,0.55062 5.69861,0.98838 1.25338,0.63225 1.43967,0.63634 1.9688,0.0432 0.43742,-0.49031 0.48813,-0.85683 0.20142,-1.45724 -0.68413,-1.43284 -1.31073,-1.61291 -9.93669,-2.85539 -1.44681,-0.20841 -4.26192,-1.06381 -6.25581,-1.90088 -2.7558,-1.15693 -4.41923,-1.57993 -6.9358,-1.76374 -4.2538,-0.3107 -4.99872,-0.49309 -4.99872,-1.22385 0,-0.87558 1.49909,-1.90807 2.77034,-1.90807 0.60655,0 2.008,0.31983 3.11435,0.71072 1.85051,0.65384 2.05999,0.65645 2.61655,0.0326 1.23973,-1.38957 -0.4711,-2.86712 -4.23159,-3.65458 -0.92304,-0.19328 -1.76731,-0.45126 -1.87615,-0.57327 -0.10883,-0.12197 0.0539,-0.75978 0.36155,-1.41727 1.64433,-3.51355 6.75602,-6.87131 10.46141,-6.87187 2.11312,-2.7e-4 2.16187,0.0268 2.88026,1.60522 1.63172,3.58504 5.53864,6.15436 9.37764,6.167 2.3568,0.008 2.75767,-0.55508 1.44396,-2.02756 -0.63389,-0.71052 -1.66352,-1.15539 -3.49786,-1.51132 -2.79339,-0.54205 -4.66288,-1.95672 -4.66288,-3.52852 0,-0.73552 0.18257,-0.79158 1.78197,-0.54714 2.26648,0.3464 6.6419,2.66201 8.52618,4.51231 1.65986,1.62997 3.57246,4.80172 3.57246,5.92449 0,0.6454 -0.33006,0.75867 -2.21078,0.75867 -1.5023,0 -2.27263,0.18067 -2.40377,0.56376 -0.33843,0.98847 0.33306,1.59594 2.02824,1.83491 2.36318,0.33314 4.3606,2.65378 2.8452,3.30559 -0.27025,0.11628 -2.39291,-0.45688 -4.71696,-1.27363 -2.32406,-0.81675 -5.58931,-1.87528 -7.25612,-2.35231 -4.0626,-1.16266 -6.06374,-2.37127 -8.64068,-5.21858 -2.20732,-2.43895 -3.05001,-2.73793 -3.8022,-1.34903 -0.35289,0.6516 -0.12996,1.06267 1.48258,2.73324 1.04386,1.08147 3.1375,2.8964 4.65253,4.03316 2.60665,1.95585 3.66555,2.41735 10.74751,4.68407 2.70323,0.86522 4.93772,2.80648 5.82849,5.06355 0.7763,1.96715 0.684,3.16676 -0.34475,4.47991 -1.28257,1.63712 -3.69749,0.6382 -7.54712,-3.12178 -1.77242,-1.73114 -2.67255,-1.98396 -3.42856,-0.96291 -0.40037,0.54069 -0.30087,0.85517 0.61056,1.92977 0.59888,0.70609 1.84851,1.76659 2.77704,2.35667 3.28901,2.09018 4.52588,3.09379 4.3055,3.4935 -0.31143,0.56475 -0.93274,0.48098 -2.24217,-0.30225 z m 0.70636,-19.50448 c 0.78519,-0.79816 -0.2321,-1.5923 -2.88829,-2.25468 -4.09963,-1.02233 -6.40218,-2.4557 -8.17667,-5.0901 -1.67719,-2.48995 -2.32568,-2.94485 -2.96574,-2.08041 -0.71685,0.96817 0.22204,3.29356 2.12267,5.25728 3.45688,3.57161 10.17972,5.92467 11.90803,4.16791 z"
       id="path3839-6"
       inkscape:connector-curvature="0" />
    <path
       style="fill:#000000;fill-opacity:1;stroke-width:0.19858961"
       d="m 29.714422,196.74415 c -1.96425,-0.62241 -3.59353,-1.31167 -4.40803,-1.86476 -1.15401,-0.78363 -2.62607,-2.05155 -2.62607,-2.26188 0,-0.38555 1.71867,-0.20255 3.15572,0.33599 2.11375,0.79215 6.7858,3.63917 6.7858,4.13509 0,0.29938 -1.39843,0.13374 -2.90742,-0.34444 z"
       id="path3841-1"
       inkscape:connector-curvature="0" />
    <path
       style="fill:#000000;fill-opacity:1;stroke-width:0.19858961"
       d="m 34.135472,194.80851 c -2.35501,-1.97186 -3.20669,-2.50874 -5.67419,-3.57688 -2.1781,-0.94286 -3.53077,-1.27844 -6.2499,-1.5505 -1.238,-0.12386 -2.47892,-0.32614 -2.7576,-0.44948 -0.59154,-0.26184 -1.0877,-1.02518 -1.0877,-1.67342 0,-0.45261 0.0174,-0.45457 3.0481,-0.34519 3.77754,0.13633 5.21277,0.52343 8.30024,2.23866 3.44132,1.91181 9.0974,6.19105 9.0974,6.88283 0,0.21164 -0.32375,0.28244 -1.26611,0.27681 l -1.26614,-0.008 z"
       id="path3843-0"
       inkscape:connector-curvature="0" />
    <path
       style="fill:#fbfbfb;fill-opacity:1;stroke-width:0.11377493"
       d="m 32.305362,200.27788 c -6.30263,-0.32911 -12.36261,-3.88657 -15.92171,-9.34671 -3.33318,-5.11354 -4.18626,-11.69224 -2.27926,-17.57692 0.51524,-1.58995 1.78708,-4.12561 2.75257,-5.48781 0.98957,-1.39617 3.52804,-3.93465 4.92422,-4.92422 2.19154,-1.55331 5.21945,-2.84461 7.98315,-3.40454 1.12309,-0.22754 1.6272,-0.26125 3.90633,-0.26125 2.27912,0 2.78323,0.0337 3.90632,0.26125 8.68304,1.75919 15.22443,8.65352 16.46055,17.34866 0.19381,1.3633 0.21939,4.06079 0.0515,5.4325 -0.45451,3.71369 -2.09448,7.52431 -4.51637,10.49418 -0.91473,1.12171 -2.79062,2.87135 -4.02163,3.751 -0.58947,0.42121 -1.78854,1.12537 -2.66461,1.5648 -3.39342,1.70213 -6.61388,2.35622 -10.58106,2.14906 z m 0.27163,-3.10649 c 0.34457,-0.21295 -1.54984,-1.58004 -4.25375,-3.06969 -2.39276,-1.31822 -3.92174,-1.77366 -5.95446,-1.77366 -1.77604,0 -1.77112,0.19686 0.0382,1.52834 2.0421,1.50281 3.65139,2.20701 7.05404,3.08672 1.46013,0.3775 2.72468,0.47014 3.11601,0.22829 z m 6.59947,-0.0776 c 0.19448,-0.0678 0.35361,-0.1962 0.35361,-0.28534 0,-0.56982 -4.05632,-3.87336 -7.90736,-6.43989 -4.22843,-2.81804 -7.56525,-3.82262 -12.32555,-3.71073 -1.45753,0.0343 -1.64783,0.0618 -1.79196,0.25918 -0.50665,0.69393 0.44992,2.23384 1.54712,2.49059 0.1574,0.0368 1.10458,0.14761 2.10484,0.24616 3.43591,0.33853 4.88736,0.70997 7.56429,1.93578 2.48601,1.13839 3.42779,1.76481 5.88643,3.91527 1.99899,1.74842 2.22662,1.8696 3.3455,1.78106 0.47821,-0.0379 1.0286,-0.12428 1.22308,-0.19208 z m 4.89003,-2.83677 c 0.0933,-0.13299 0.28773,-0.22238 0.48355,-0.22238 0.1801,0 0.42984,-0.1024 0.55499,-0.22755 0.61433,-0.61433 0.20821,-0.97322 -3.41324,-3.01628 -2.21622,-1.2503 -3.18521,-1.91735 -4.20207,-2.89273 -0.72085,-0.69143 -0.80403,-0.81612 -0.80403,-1.20516 0,-0.53055 0.26493,-0.85008 0.70482,-0.85008 0.65292,0 1.2628,0.43489 3.30239,2.35481 1.03237,0.97179 2.52775,2.10227 3.29543,2.49129 0.29921,0.15162 0.83346,0.35106 1.18723,0.44321 0.57319,0.14929 0.73135,0.14796 1.45255,-0.0123 1.33724,-0.29709 2.23401,-0.97296 2.69171,-2.02868 0.49268,-1.13642 0.38117,-2.14745 -0.41676,-3.77848 -1.31747,-2.69303 -3.8042,-4.25446 -8.5783,-5.38637 -4.51512,-1.0705 -5.91403,-1.62029 -8.44509,-3.319 -2.16475,-1.45286 -5.78541,-4.68865 -6.56748,-5.86936 -0.59579,-0.89947 -0.37945,-1.62041 0.48601,-1.61964 0.68176,5.3e-4 1.04711,0.27045 2.33816,1.72692 1.24797,1.40788 2.06825,2.14692 3.20191,2.88479 1.89875,1.23584 3.27672,1.77282 6.99716,2.72672 1.12637,0.2888 3.58391,1.03215 5.46119,1.65189 4.21644,1.39196 4.87825,1.57383 6.05938,1.66516 0.81031,0.0627 0.97069,0.0444 1.1662,-0.1325 0.59255,-0.53626 0.0215,-2.1476 -0.98801,-2.78781 -0.58457,-0.37072 -1.17746,-0.51273 -2.81085,-0.67328 -1.20829,-0.11877 -1.56975,-0.30306 -1.71288,-0.87335 -0.0887,-0.35337 0.19894,-0.91168 0.53197,-1.03258 0.14148,-0.0514 1.16751,-0.0934 2.28006,-0.0934 1.67094,0 2.04288,-0.0297 2.13817,-0.17067 0.21307,-0.31519 8e-4,-1.18423 -0.56981,-2.33238 -1.38478,-2.78662 -3.69675,-5.01866 -6.83376,-6.59751 -1.54042,-0.77528 -4.02691,-1.85128 -4.86309,-2.10444 -0.9425,-0.28534 -2.27723,-0.45766 -2.6032,-0.33608 -0.32602,0.12161 -0.41074,0.53894 -0.25692,1.26566 0.15726,0.74301 0.35227,1.14195 0.8713,1.78257 0.86197,1.06389 1.56105,1.37193 3.77998,1.66562 2.66107,0.35221 3.42984,0.70085 3.975,1.80274 0.43075,0.87061 0.0109,1.11292 -1.92263,1.10973 -2.03558,-0.003 -3.84572,-0.58619 -5.71657,-1.84063 -0.96125,-0.64454 -2.44823,-2.17909 -2.91833,-3.0117 -0.20999,-0.37193 -0.59398,-1.05544 -0.85332,-1.51893 -0.61624,-1.10138 -0.8434,-1.26048 -1.91552,-1.34156 -1.84923,-0.13986 -3.61933,0.33455 -6.12201,1.64079 -2.49012,1.29968 -3.31459,1.9154 -4.7327,3.53447 -1.8462,2.10782 -2.38692,3.39108 -1.5832,3.75728 0.15868,0.0723 1.00683,0.26159 1.88478,0.42065 2.38832,0.4327 4.21378,1.18324 4.70638,1.93504 0.39132,0.59723 0.0476,1.42007 -0.66828,1.59974 -0.13205,0.0331 -0.87842,-0.14231 -1.65861,-0.3899 -1.98101,-0.62866 -2.63539,-0.73751 -4.07673,-0.67813 -1.05428,0.0434 -1.33162,0.097 -1.87219,0.36146 -0.74208,0.36307 -1.10145,0.85595 -1.10145,1.51069 0,0.50535 0.24265,0.91865 0.6246,1.06386 0.14318,0.0544 1.30278,0.1546 2.5769,0.22258 5.33338,0.28457 6.52061,0.53298 10.62215,2.22257 0.87607,0.36089 1.95125,0.77914 2.38928,0.92946 0.99776,0.34238 2.90773,0.69113 4.29017,0.78336 1.50896,0.10066 5.79069,0.82038 6.82677,1.1475 0.98733,0.31174 1.47577,0.66521 1.8015,1.3037 0.27625,0.54149 0.28409,1.02678 0.0218,1.35067 -0.19766,0.24409 -0.20947,0.24494 -0.76798,0.0558 -0.31198,-0.10566 -1.01421,-0.41634 -1.5605,-0.69041 -0.95802,-0.48062 -1.03067,-0.49835 -2.04795,-0.49987 -1.58904,-0.002 -5.48627,-0.21094 -6.50524,-0.34813 -1.39287,-0.18754 -2.73549,-0.57497 -5.69802,-1.64422 -4.82118,-1.74008 -5.37593,-1.87442 -7.7399,-1.87442 -0.90019,0 -1.89671,0.0558 -2.2145,0.12391 -0.94778,0.20326 -1.59512,0.93313 -1.59512,1.79848 0,0.69227 0.39654,0.83751 2.95814,1.08339 3.00932,0.28886 5.83797,0.78418 7.91202,1.38547 2.94103,0.85263 7.525,3.51462 10.78821,6.26491 4.08227,3.44058 5.38765,4.16883 5.97436,3.33298 z"
       id="path3879-3-6"
       inkscape:connector-curvature="0" />
    <path
       style="fill:#fbfbfb;fill-opacity:1;stroke-width:0.08045102"
       d="m 39.503202,174.81293 c -0.31909,-0.0593 -2.36208,-0.73841 -3.41917,-1.13654 -2.48677,-0.93657 -5.09775,-2.88627 -6.4951,-4.85009 -0.81385,-1.14377 -1.46994,-2.95401 -1.21723,-3.35849 0.15631,-0.25018 0.45815,-0.36577 0.79174,-0.30319 0.41812,0.0784 1.10616,0.78107 1.89333,1.93349 1.15584,1.69215 2.73867,3.1287 4.3032,3.90553 1.28735,0.6392 3.52522,1.31438 5.58043,1.68367 0.96257,0.17295 1.31052,0.32833 1.65677,0.73982 0.25905,0.30786 0.25761,0.47708 -0.007,0.79123 -0.40722,0.48394 -0.75808,0.59895 -1.88048,0.61636 -0.5531,0.009 -1.09615,-0.001 -1.20677,-0.0218 z"
       id="path3885-8"
       inkscape:connector-curvature="0" />
    <text
       xml:space="preserve"
       style="font-style:normal;font-variant:normal;font-weight:normal;font-stretch:normal;font-size:12.73576069px;line-height:1.25;font-family:'BankGothic Md BT';-inkscape-font-specification:'BankGothic Md BT';letter-spacing:0px;word-spacing:0px;fill:#e6e6e6;fill-opacity:1;stroke:none;stroke-width:0.31839406"
       x="64.027168"
       y="190.19679"
       id="text3883-2-7"
       transform="scale(1.0420112,0.95968258)"><tspan
         sodipodi:role="line"
         id="tspan3881-6-2"
         x="64.027168"
         y="190.19679"
         style="fill:#e6e6e6;stroke-width:0.31839406">MITOCHONDRIAL</tspan></text>
  </g>
</svg>
